<svg xmlns="http://www.w3.org/2000/svg" width="108" height="72" viewBox="0 0 108 72" fill="none"><path d="M23.4424 24.791H48.0008V41.5354H23.4424V24.791Z" fill="#20376C"></path><path fill-rule="evenodd" clip-rule="evenodd" d="M34.8744 18.2782C38.6786 18.2782 41.8813 15.1185 41.8813 11.0729C41.8813 7.02721 38.6786 3.86749 34.8744 3.86749C31.0702 3.86749 27.8675 7.02721 27.8675 11.0729C27.8675 15.1185 31.0702 18.2782 34.8744 18.2782ZM34.8744 22.1457C40.8802 22.1457 45.7488 17.1882 45.7488 11.0729C45.7488 4.95748 40.8802 0 34.8744 0C28.8686 0 24 4.95748 24 11.0729C24 17.1882 28.8686 22.1457 34.8744 22.1457Z" fill="black"></path><path fill-rule="evenodd" clip-rule="evenodd" d="M87.3749 42.6528H8.62634C6.24424 42.6528 4.31317 44.6002 4.31317 47.0025V63.0922C4.31317 65.4946 6.24424 67.442 8.62634 67.442H87.3749C89.757 67.442 91.6881 65.4946 91.6881 63.0922V47.0025C91.6881 44.6002 89.757 42.6528 87.3749 42.6528ZM8.62634 38.303C3.86214 38.303 0 42.1979 0 47.0025V63.0922C0 67.8969 3.86214 71.7918 8.62634 71.7918H87.3749C92.1391 71.7918 96.0012 67.8969 96.0012 63.0922V47.0025C96.0012 42.1979 92.1391 38.303 87.3749 38.303H8.62634Z" fill="black"></path><circle cx="13.9535" cy="54.3729" r="5.02332" fill="#F8A21F"></circle><rect x="69.21" y="32.6052" width="37.954" height="29.0236" fill="white"></rect><path fill-rule="evenodd" clip-rule="evenodd" d="M81.4897 22.2427C81.4897 18.7181 84.2385 15.8608 87.6294 15.8608C91.0202 15.8608 93.769 18.7181 93.769 22.2427V31.4889H81.4897V22.2427ZM87.6294 20.7475C86.8349 20.7475 86.1909 21.4169 86.1909 22.2427V26.6023H89.0678V22.2427C89.0678 21.4169 88.4238 20.7475 87.6294 20.7475Z" fill="black"></path><path fill-rule="evenodd" clip-rule="evenodd" d="M80.552 34.4733C79.6281 35.6388 79.2576 36.9805 79.2576 37.6631V37.7019L79.2563 37.7406C79.2039 39.2816 79.1413 41.4534 79.1232 43.4124C79.1039 45.4852 79.1415 47.018 79.2234 47.4851C79.3251 48.0647 79.8106 49.6917 81.1147 51.1363C82.3501 52.5049 84.4295 53.8399 88.0252 53.8399C90.1243 53.8399 91.6628 53.8225 92.8094 53.7689C93.9637 53.7149 94.5872 53.6284 94.9298 53.5382C94.9486 53.4799 94.9723 53.404 95.0016 53.3064C94.9875 53.2803 94.9656 53.2442 94.9318 53.197C94.821 53.0421 94.6501 52.8767 94.4513 52.7331H88.0252C86.8307 52.7331 85.8624 51.7391 85.8624 50.5131C85.8624 49.287 86.8307 48.2931 88.0252 48.2931H95.1969L95.3656 48.3207C95.4202 48.3296 95.58 48.3429 95.7951 48.3192C96.0053 48.2961 96.2013 48.245 96.3568 48.1739C96.5071 48.1053 96.5872 48.0339 96.6314 47.9778C96.6663 47.9336 96.7347 47.8313 96.7664 47.5863C96.8365 47.0447 96.6808 46.7369 96.4721 46.4974C96.2861 46.2841 96.0477 46.1264 95.8554 46.0307H88.3414C87.1469 46.0307 86.1785 45.0368 86.1785 43.8108C86.1785 42.5847 87.1469 41.5908 88.3414 41.5908H96.2456C97.0718 41.5908 97.6151 41.5236 97.9638 41.4371C98.1508 41.3907 98.2552 41.3454 98.3062 41.3187C98.3314 41.2303 98.3736 41.007 98.3736 40.5289C98.3736 40.4146 98.3242 40.2401 98.1533 40.0502C98.0711 39.9589 97.9806 39.8882 97.9005 39.8419C97.8599 39.8184 97.8303 39.806 97.8137 39.7999L93.5799 39.4208H87.7542C86.5597 39.4208 85.5914 38.4269 85.5914 37.2009C85.5914 35.9748 86.5597 34.9809 87.7542 34.9809H93.674C94.3395 34.9809 95.4209 34.8049 96.2365 34.3967C97.0375 33.9957 97.0759 33.6814 97.0662 33.4686C97.0582 33.295 97.0161 33.2203 96.9863 33.1769C96.9446 33.1161 96.8557 33.0222 96.6758 32.9192C96.281 32.6932 95.7322 32.5863 95.3719 32.5798H84.3667C82.6549 32.5798 81.4173 33.3818 80.552 34.4733ZM100.557 36.3273C101.098 35.5213 101.444 34.5087 101.387 33.2601C101.289 31.1208 100.049 29.7663 98.7829 29.0416C97.5978 28.3632 96.2882 28.151 95.4137 28.1401L95.4006 28.1399H84.3667C81.1281 28.1399 78.7298 29.7371 77.1967 31.6711C75.7338 33.5164 74.9444 35.8046 74.9321 37.6201C74.8794 39.1742 74.8162 41.3711 74.7977 43.3701C74.78 45.2702 74.7951 47.2966 74.9662 48.2717C75.1807 49.4948 75.9598 51.9585 77.9416 54.1539C79.9921 56.4255 83.2199 58.2798 88.0252 58.2798C90.1267 58.2798 91.752 58.2629 93.0062 58.2042C94.2317 58.1469 95.2443 58.0455 96.0541 57.8257C96.9259 57.5891 97.7448 57.1661 98.3482 56.3512C98.8177 55.7172 99.0323 54.9741 99.1504 54.5654C99.159 54.5353 99.1672 54.5071 99.1749 54.4808C99.4775 53.4486 99.3464 52.4927 99.0328 51.6939C100.023 50.9701 100.84 49.8253 101.055 48.1705C101.209 46.979 101.027 45.9338 100.65 45.053C100.846 44.9257 101.033 44.7829 101.209 44.623C102.566 43.3882 102.699 41.6867 102.699 40.5289C102.699 39.0951 102.094 37.8855 101.331 37.0377C101.1 36.7807 100.84 36.5408 100.557 36.3273ZM98.2877 41.3677C98.2874 41.3671 98.2896 41.3614 98.2952 41.3523C98.2908 41.3637 98.288 41.3683 98.2877 41.3677ZM95.0242 53.3597C95.0236 53.3595 95.0216 53.3544 95.0198 53.3447C95.0238 53.3549 95.0247 53.3598 95.0242 53.3597Z" fill="black"></path><path d="M22.5 38.5V31.5C22.5 28.1863 25.1863 25.5 28.5 25.5H42.5C45.8137 25.5 48.5 28.1863 48.5 31.5V38.5" stroke="black" stroke-width="4"></path></svg>