<svg xmlns="http://www.w3.org/2000/svg" width="87" height="81" viewBox="0 0 87 81" fill="none"><path d="M67.9547 36.276C68.0016 21.7796 56.2879 9.98994 41.7915 9.94304C27.2951 9.89614 15.5054 21.6098 15.4585 36.1062" stroke="black" stroke-width="3"></path><path d="M52.7488 13.0729C52.7488 19.1882 47.8802 24.1457 41.8744 24.1457C35.8686 24.1457 31 19.1882 31 13.0729C31 6.95748 35.8686 2 41.8744 2C47.8802 2 52.7488 6.95748 52.7488 13.0729Z" fill="white"></path><path d="M0 42.9301C0 38.6581 3.46307 35.1951 7.73498 35.1951H78.3465C82.6184 35.1951 86.0815 38.6581 86.0815 42.93V57.2358C86.0815 61.5077 82.6184 64.9708 78.3465 64.9708H7.73498C3.46307 64.9708 0 61.5077 0 57.2358V42.9301Z" fill="white"></path><path d="M78.3465 38.3675H7.73498C5.32289 38.3675 3.36749 40.3229 3.36749 42.735V57.0408C3.36749 59.4529 5.32288 61.4082 7.73498 61.4082H78.3465C80.7586 61.4082 82.714 59.4529 82.714 57.0408V42.735C82.714 40.3229 80.7586 38.3675 78.3465 38.3675ZM0.5 42.735C0.5 38.7392 3.73921 35.5 7.73498 35.5H78.3465C82.3423 35.5 85.5815 38.7392 85.5815 42.735V57.0408C85.5815 61.0365 82.3423 64.2757 78.3465 64.2757H7.73498C3.73921 64.2757 0.5 61.0365 0.5 57.0408V42.735Z" fill="black" stroke="black"></path><path d="M49.4398 51.4047C48.9808 49.046 51.2063 47.0615 53.442 47.8361L73.2058 54.6839C75.4374 55.4572 76.0056 58.4008 74.229 59.9849L58.5229 73.9893C56.7463 75.5734 53.9558 74.6115 53.4976 72.2569L49.4398 51.4047Z" fill="#F8A21F"></path><path fill-rule="evenodd" clip-rule="evenodd" d="M53.4583 51.9663L57 70.1664L70.7085 57.9432L53.4583 51.9663ZM53.442 47.8361C51.2063 47.0615 48.9808 49.046 49.4398 51.4047L53.4976 72.2569C53.9558 74.6115 56.7463 75.5734 58.5229 73.9893L74.229 59.9849C76.0056 58.4008 75.4374 55.4572 73.2058 54.684L53.442 47.8361Z" fill="black"></path><circle cx="13.5" cy="49.5" r="4.5" fill="#F8A21F"></circle><path d="M30 25H55V35H30V25Z" fill="#20376C"></path><path fill-rule="evenodd" clip-rule="evenodd" d="M41.3744 18.2782C45.1786 18.2782 48.3813 15.1185 48.3813 11.0729C48.3813 7.02721 45.1786 3.86749 41.3744 3.86749C37.5702 3.86749 34.3675 7.02721 34.3675 11.0729C34.3675 15.1185 37.5702 18.2782 41.3744 18.2782ZM41.3744 22.1457C47.3802 22.1457 52.2488 17.1882 52.2488 11.0729C52.2488 4.95748 47.3802 0 41.3744 0C35.3686 0 30.5 4.95748 30.5 11.0729C30.5 17.1882 35.3686 22.1457 41.3744 22.1457Z" fill="black"></path><path d="M29 38.5V31.5C29 28.1863 31.6863 25.5 35 25.5H49C52.3137 25.5 55 28.1863 55 31.5V38.5" stroke="black" stroke-width="4"></path><path d="M65.1367 64.9573C66.8691 63.324 69.5536 63.4078 71.1327 65.1445L75.6178 70.077C77.197 71.8137 77.0728 74.5455 75.3404 76.1788C73.6081 77.812 70.9236 77.7282 69.3444 75.9915L64.8593 71.0591C63.2802 69.3224 63.4044 66.5905 65.1367 64.9573Z" fill="#F8A21F"></path><path fill-rule="evenodd" clip-rule="evenodd" d="M73.4661 72.4453L68.3454 66.8139C67.9182 66.3441 67.1806 66.3321 66.698 66.7871C66.2154 67.2421 66.1704 67.9919 66.5977 68.4617L71.7183 74.0931C72.1455 74.5629 72.8831 74.5749 73.3657 74.1199C73.8483 73.6649 73.8933 72.9151 73.4661 72.4453ZM71.1595 64.1609C69.3566 62.1781 66.2439 62.1275 64.2071 64.0477C62.1703 65.968 61.9807 69.132 63.7836 71.1148L68.9042 76.7461C70.7071 78.7289 73.8198 78.7796 75.8566 76.8593C77.8934 74.939 78.083 71.775 76.2801 69.7923L71.1595 64.1609Z" fill="black"></path><path d="M63.1916 62.7384C63.6731 62.3024 64.7102 62.6896 65.508 63.6031L68.7249 67.2869C69.5227 68.2004 69.7791 69.2944 69.2975 69.7304C68.816 70.1664 67.779 69.7792 66.9812 68.8657L63.7643 65.1819C62.9665 64.2683 62.7101 63.1743 63.1916 62.7384Z" fill="#F8A21F"></path></svg>