<svg width="24" height="24" viewBox="0 0 24 24" fill="none" xmlns="http://www.w3.org/2000/svg">
<path fill-rule="evenodd" clip-rule="evenodd" d="M7.60045 2.18164H16.399C19.3871 2.18164 21.8181 4.61264 21.818 7.60057V16.3991C21.818 19.387 19.3871 21.818 16.399 21.818H7.60045C4.61252 21.818 2.18164 19.3871 2.18164 16.3991V7.60057C2.18164 4.61264 4.61252 2.18164 7.60045 2.18164ZM16.3991 20.0758C18.4265 20.0758 20.0759 18.4265 20.0759 16.3991H20.0758V7.60057C20.0758 5.5733 18.4263 3.92387 16.399 3.92387H7.60045C5.57319 3.92387 3.92387 5.5733 3.92387 7.60057V16.3991C3.92387 18.4265 5.57319 20.0759 7.60045 20.0758H16.3991ZM6.85696 11.9999C6.85696 9.16406 9.16401 6.85697 11.9998 6.85697C14.8356 6.85697 17.1427 9.16406 17.1427 11.9999C17.1427 14.8357 14.8356 17.1427 11.9998 17.1427C9.16401 17.1427 6.85696 14.8357 6.85696 11.9999ZM8.6278 11.9998C8.6278 13.8591 10.1406 15.3717 11.9998 15.3717C13.8591 15.3717 15.3718 13.8591 15.3718 11.9998C15.3718 10.1404 13.8592 8.62772 11.9998 8.62772C10.1404 8.62772 8.6278 10.1404 8.6278 11.9998Z" fill="#22C55E"/>
<mask id="mask0_2_2976" style="mask-type:alpha" maskUnits="userSpaceOnUse" x="2" y="2" width="20" height="20">
<path fill-rule="evenodd" clip-rule="evenodd" d="M7.60045 2.18164H16.399C19.3871 2.18164 21.8181 4.61264 21.818 7.60057V16.3991C21.818 19.387 19.3871 21.818 16.399 21.818H7.60045C4.61252 21.818 2.18164 19.3871 2.18164 16.3991V7.60057C2.18164 4.61264 4.61252 2.18164 7.60045 2.18164ZM16.3991 20.0758C18.4265 20.0758 20.0759 18.4265 20.0759 16.3991H20.0758V7.60057C20.0758 5.5733 18.4263 3.92387 16.399 3.92387H7.60045C5.57319 3.92387 3.92387 5.5733 3.92387 7.60057V16.3991C3.92387 18.4265 5.57319 20.0759 7.60045 20.0758H16.3991ZM6.85696 11.9999C6.85696 9.16406 9.16401 6.85697 11.9998 6.85697C14.8356 6.85697 17.1427 9.16406 17.1427 11.9999C17.1427 14.8357 14.8356 17.1427 11.9998 17.1427C9.16401 17.1427 6.85696 14.8357 6.85696 11.9999ZM8.6278 11.9998C8.6278 13.8591 10.1406 15.3717 11.9998 15.3717C13.8591 15.3717 15.3718 13.8591 15.3718 11.9998C15.3718 10.1404 13.8592 8.62772 11.9998 8.62772C10.1404 8.62772 8.6278 10.1404 8.6278 11.9998Z" fill="white"/>
</mask>
<g mask="url(#mask0_2_2976)">
</g>
</svg>
