<svg width="186" height="44" viewBox="0 0 186 44" fill="none" xmlns="http://www.w3.org/2000/svg">
<g clip-path="url(#clip0_10_989)">
<path fill-rule="evenodd" clip-rule="evenodd" d="M4.48866 40.8486L8.31512 38.6547L9.85142 37.7731L11.3597 36.9036L13.7263 35.5473L17.4848 33.4013L21.2472 35.5473L23.6098 36.9036L25.1179 37.7731L26.6583 38.6547L30.4047 40.8167L31.5438 41.4629L32.6549 42.0971L34.9092 43.3895V22.6232L30.4047 20.0344V35.675L27.3562 33.9198L22.8636 31.351L21.1508 30.3537L19.7391 29.556V3.76749H15.2344V30.1702L12.1057 31.9692L7.61728 34.5581L4.48866 36.3411V20.0663L0 22.6391V43.4215L2.23826 42.1291L3.3615 41.4948L4.48866 40.8486ZM27.3522 30.3378V-0.891602H22.8597V27.7689L27.3522 30.3378ZM12.1099 28.3673V8.4226H7.6212V30.9561L12.1099 28.3673Z" fill="#28CE8C"/>
</g>
<path d="M53.9415 31.0907H57.8651L61.4818 18.6413H61.6306L65.2566 31.0907H69.1801L74.6285 12.0494H70.2308L67.0789 25.3077H66.9116L63.4436 12.0494H59.6781L56.2008 25.2798H56.0428L52.8909 12.0494H48.4932L53.9415 31.0907Z" fill="#252235"/>
<path d="M76.7832 31.0907H89.651V27.7715H80.809V23.225H88.9537V19.9058H80.809V15.3686H89.6138V12.0494H76.7832V31.0907Z" fill="#252235"/>
<path d="M92.8144 31.0907H105.003V27.7715H96.8403V12.0494H92.8144V31.0907Z" fill="#252235"/>
<path d="M104.125 12.0494L111.07 24.3593V31.0907H115.068V24.3593L122.013 12.0494H117.504L113.162 20.2498H112.976L108.634 12.0494H104.125Z" fill="#252235"/>
<path d="M124.689 15.3686H130.518V31.0907H134.498V15.3686H140.327V12.0494H124.689V15.3686Z" fill="#252235"/>
<path d="M146.928 12.0494H142.903V31.0907H146.928V12.0494Z" fill="#252235"/>
<path d="M167.041 18.7157C166.511 14.318 163.183 11.7891 158.776 11.7891C153.746 11.7891 149.906 15.3407 149.906 21.5701C149.906 27.7808 153.681 31.351 158.776 31.351C163.657 31.351 166.604 28.1062 167.041 24.601L162.969 24.5825C162.588 26.6186 160.989 27.7901 158.841 27.7901C155.949 27.7901 153.987 25.6424 153.987 21.5701C153.987 17.6093 155.921 15.35 158.869 15.35C161.072 15.35 162.662 16.6238 162.969 18.7157H167.041Z" fill="#252235"/>
<path d="M180.258 17.5256H184.116C184.06 14.132 181.271 11.7891 177.031 11.7891C172.857 11.7891 169.798 14.0948 169.817 17.5535C169.807 20.3614 171.788 21.9698 175.005 22.7415L177.078 23.2622C179.151 23.7643 180.304 24.3593 180.313 25.6424C180.304 27.037 178.984 27.9853 176.938 27.9853C174.846 27.9853 173.34 27.0184 173.21 25.1124H169.314C169.417 29.2312 172.364 31.3603 176.985 31.3603C181.634 31.3603 184.367 29.1382 184.376 25.6517C184.367 22.4812 181.978 20.7984 178.668 20.0546L176.957 19.6455C175.302 19.2643 173.917 18.6506 173.945 17.2839C173.945 16.0566 175.032 15.1548 177.004 15.1548C178.928 15.1548 180.109 16.0287 180.258 17.5256Z" fill="#252235"/>
<defs>
<clipPath id="clip0_10_989">
<rect width="34.9091" height="43.6364" fill="white"/>
</clipPath>
</defs>
</svg>
