<svg width="155" height="44" viewBox="0 0 155 44" fill="none" xmlns="http://www.w3.org/2000/svg">
<path d="M52.4811 14.5487C52.4811 22.4033 60.9247 23.4636 60.9247 29.1189C60.9247 31.0825 60.0607 31.7894 58.6862 31.7894C57.3116 31.7894 56.4476 31.0825 56.4476 29.1189V27.1553H52.3633V28.844C52.3633 33.2425 54.5626 35.756 58.804 35.756C63.0455 35.756 65.2447 33.2425 65.2447 28.844C65.2447 20.9894 56.8011 19.9291 56.8011 14.2738C56.8011 12.3102 57.5866 11.564 58.9611 11.564C60.3356 11.564 61.1211 12.3102 61.1211 14.2738V15.4127H65.2055V14.5487C65.2055 10.1502 63.0455 7.63672 58.8433 7.63672C54.6411 7.63672 52.4811 10.1502 52.4811 14.5487Z" fill="#15003E"/>
<path d="M71.4965 35.4418H75.8165V26.3305L81.2754 7.9509H77.1517L73.8528 20.4789L70.5539 7.9509H66.0376L71.4965 26.3305V35.4418Z" fill="#15003E"/>
<path d="M88.9919 7.9509H82.9831V35.4418H86.7533V16.0018L89.9737 35.4418H94.058L97.0428 15.7269V35.4418H101.127V7.9509H95.1184L92.1729 27.4694L88.9919 7.9509Z" fill="#15003E"/>
<path d="M103.013 11.8782H107.529V35.4418H111.849V11.8782H116.366V7.9509H103.013V11.8782Z" fill="#15003E"/>
<path d="M131.699 35.4418C131.267 34.4207 131.228 33.4389 131.228 32.1036V27.8622C131.228 24.9953 130.521 22.9138 128.361 22.0105C130.286 21.1073 131.189 19.2614 131.189 16.4338V14.2738C131.189 10.0324 129.264 7.9509 124.787 7.9509H118.268V35.4418H122.588V24.2491H124.081C126.044 24.2491 126.908 25.1916 126.908 27.7444V32.0644C126.908 34.3029 127.065 34.7349 127.301 35.4418H131.699ZM124.67 11.8782C126.201 11.8782 126.869 12.7422 126.869 14.7058V17.4156C126.869 19.6149 125.887 20.3218 124.277 20.3218H122.588V11.8782H124.67Z" fill="#15003E"/>
<path d="M134.069 35.4418H138.389V7.9509H134.069V35.4418Z" fill="#15003E"/>
<path d="M149.992 25.1916V29.1189C149.992 31.0825 149.128 31.7894 147.753 31.7894C146.379 31.7894 145.515 31.0825 145.515 29.1189V14.2738C145.515 12.3102 146.379 11.564 147.753 11.564C149.128 11.564 149.992 12.3102 149.992 14.2738V17.2193H154.076V14.5487C154.076 10.1502 151.877 7.63672 147.635 7.63672C143.394 7.63672 141.195 10.1502 141.195 14.5487V28.844C141.195 33.2425 143.394 35.756 147.635 35.756C151.877 35.756 154.076 33.2425 154.076 28.844V25.1916H149.992Z" fill="#15003E"/>
<g clip-path="url(#clip0_10_986)">
<path fill-rule="evenodd" clip-rule="evenodd" d="M14.8435 13.8349L12.4829 17.9161L10.2367 14.0199L12.5856 9.93873H28.9926L32.4763 3.89624H9.09898L4.49225 11.8868C7.94805 17.8569 11.3985 23.827 14.8435 29.7971H21.8109C20.061 26.768 18.312 23.7394 16.564 20.7113L16.0796 19.873H32.0476L38.9151 31.7642L32.0476 43.6364H6.85289L0.0558404 31.6498L3.46906 25.7218L5.72985 29.6165L4.50695 31.7496L9.11368 39.7402H29.7883L34.4097 31.7496L29.803 23.759H22.8356C24.3134 26.333 25.7922 28.9064 27.272 31.4794L27.4394 31.7452L26.3163 33.6933H12.5974C8.44473 26.5126 4.29748 19.3372 0.155622 12.1672L0 11.8824L6.85289 -0.00878906H39.2411L31.2563 13.8349H14.8435Z" fill="#7F46F0"/>
</g>
<defs>
<clipPath id="clip0_10_986">
<rect width="39.2425" height="43.6364" fill="white"/>
</clipPath>
</defs>
</svg>
