<svg width="176" height="44" viewBox="0 0 176 44" fill="none" xmlns="http://www.w3.org/2000/svg">
<g clip-path="url(#clip0_10_988)">
<path d="M39.4592 2.51614C39.7137 2.60574 39.9353 2.76962 40.0956 2.98659C40.2559 3.20355 40.3474 3.46361 40.3582 3.73314C40.4964 5.17248 40.5554 6.61834 40.5347 8.06415C40.5195 8.72741 40.5043 9.39067 40.4601 10.0539C40.2107 9.95049 39.9749 9.84704 39.7239 9.74968C39.091 9.5002 38.4719 9.26442 37.8376 9.04232C37.8528 8.7046 37.868 8.38056 37.868 8.04132C37.8817 6.9658 37.8528 5.87506 37.7645 4.77064C36.7331 4.44661 35.6576 4.15149 34.5699 3.88679C33.2008 3.56276 31.8316 3.29655 30.4443 3.10488C29.6639 3.00295 28.9124 2.91319 28.1913 2.84017C27.4702 2.76715 26.702 2.72303 25.9216 2.68805C25.3131 2.67283 24.7426 2.65914 24.125 2.65914L23.226 2.67284C22.9598 2.67284 22.6509 2.68805 22.3269 2.68805C21.5465 2.71847 20.795 2.77628 20.0572 2.84017C19.3194 2.90406 18.5846 3.00295 17.8042 3.10488C16.4351 3.29655 15.0492 3.56124 13.6786 3.88679C12.5878 4.15149 11.5275 4.44661 10.4839 4.77064C10.3044 7.19227 10.3687 9.62581 10.6757 12.0346C10.8386 13.3821 11.0747 14.7197 11.383 16.0416C11.5595 16.7931 11.7664 17.5446 11.9915 18.2656L12.0068 18.325L12.0204 18.3843L12.0357 18.4436L12.0645 18.5014L12.0798 18.5608L12.0949 18.6201L12.1102 18.6794L12.1679 18.8407V18.8559L12.1832 18.9137L12.2866 19.1936L12.3003 19.2529L12.3901 19.4887L12.4038 19.5329C12.8588 20.8521 13.3854 22.1456 13.9813 23.4075L14.0102 23.4516L14.0255 23.4972L14.0391 23.5261L14.0695 23.5703L14.0832 23.6144L14.0985 23.6585L14.1274 23.6874C14.3495 24.1437 14.5838 24.6001 14.8211 25.0565C14.9975 25.3516 15.1587 25.665 15.3215 25.9404C15.5132 26.2801 15.6902 26.5747 15.8524 26.8242C16.3529 27.635 16.8823 28.4306 17.4437 29.1974C18.005 29.9641 18.577 30.7003 19.2114 31.4366C19.4477 31.7165 19.7129 32.0111 20.007 32.3205C20.2869 32.6247 20.5516 32.929 20.8026 33.1891C21.4506 33.8524 22.1276 34.4867 22.8061 35.1044L23.086 35.3402C22.8943 35.4923 22.7027 35.6444 22.4973 35.7965C21.9664 36.1936 21.4217 36.5769 20.8756 36.9603C17.932 34.3214 15.3994 31.2572 13.3621 27.8693V27.8541L13.3469 27.8404L13.3318 27.8252C13.2146 27.6335 13.1111 27.4418 13.0077 27.2806C12.8312 26.9565 12.6395 26.631 12.4783 26.3222C11.9915 25.4383 11.5489 24.5256 11.1229 23.5672C10.697 22.6088 10.3273 21.6672 9.98806 20.724C9.51418 19.3907 9.11092 18.0334 8.78012 16.6577C7.77925 12.425 7.48072 8.05659 7.89634 3.72706C7.9088 3.45713 8.00262 3.19729 8.16553 2.9817C8.32844 2.76612 8.55282 2.60488 8.80909 2.51919C10.2086 2.0476 11.6386 1.63534 13.0823 1.28089C14.497 0.956863 15.9544 0.672392 17.4437 0.456375C18.2043 0.35293 19.0045 0.264699 19.8442 0.191679C20.6551 0.117138 21.4507 0.0593291 22.2311 0.0289041C22.5262 0.0289041 22.8395 0.0136953 23.1742 0.0136953L24.1326 0L25.0895 0.0136953C25.4287 0.0136953 25.7527 0.0289041 26.0326 0.0289041C26.8283 0.0593291 27.6239 0.117138 28.4347 0.191679C29.2744 0.264699 30.07 0.35293 30.8215 0.456375C32.323 0.676956 33.7819 0.956863 35.1967 1.28089C36.6267 1.63534 38.0551 2.04152 39.4698 2.51919L39.4592 2.51614ZM30.8246 29.1989C31.3555 28.4474 31.8894 27.6776 32.3717 26.885C32.5381 26.5862 32.8111 26.361 33.1362 26.2544C33.4613 26.1478 33.8146 26.1677 34.1257 26.31C36.6859 27.5337 39.01 29.1997 40.9911 31.2313C41.2229 31.4449 41.372 31.7334 41.4123 32.0461C41.4527 32.3587 41.3817 32.6756 41.2117 32.9411C40.7994 33.5892 40.3431 34.2661 39.8867 34.9294C39.4303 35.5927 38.9283 36.2407 38.443 36.8599C38.0886 37.3163 37.7052 37.7878 37.2929 38.2594C36.94 38.6717 36.5415 39.1281 36.1003 39.6149C35.4811 40.2933 34.8833 40.911 34.2748 41.5149H34.2596C33.6708 42.1052 33.0426 42.6802 32.3885 43.2537C32.1955 43.4417 31.9506 43.5675 31.6854 43.615C31.4202 43.6624 31.1468 43.6293 30.9006 43.5199C28.9614 42.6297 27.0943 41.5901 25.3161 40.4105C25.5519 40.234 25.7877 40.0576 26.0235 39.8659C26.524 39.4673 27.026 39.0703 27.4961 38.6489C28.6977 39.4126 29.9426 40.106 31.2246 40.7254C31.6217 40.3572 32.005 39.9891 32.4036 39.6057C33.0212 38.9972 33.5963 38.4131 34.1272 37.8228C34.4801 37.4547 34.8483 37.0135 35.262 36.5419C35.615 36.1145 35.9832 35.6718 36.3376 35.2017C36.8229 34.6115 37.2655 34.0075 37.693 33.3884C37.9288 33.0841 38.1494 32.7403 38.37 32.4163C37.7069 31.7805 36.9975 31.1948 36.2478 30.6638C35.5377 30.1489 34.7949 29.6809 34.0238 29.2628C33.6846 29.7785 33.3316 30.2805 32.9771 30.7658C32.3595 31.6207 31.7252 32.4163 31.0771 33.183C30.782 33.5207 30.5021 33.8311 30.2374 34.1262C30.1187 34.2783 29.9864 34.4061 29.854 34.5521L29.8388 34.5674L29.8251 34.5826L29.8099 34.5963L29.7947 34.6115L29.781 34.6267L29.7658 34.6419L29.7506 34.6556L29.7217 34.686V34.6997C28.3149 36.1815 26.8034 37.5602 25.199 38.8253C22.7745 40.687 20.1443 42.2642 17.36 43.526C17.1069 43.6395 16.825 43.6721 16.5527 43.6193C16.2804 43.5664 16.0311 43.4308 15.8388 43.2309C15.1892 42.6711 14.5853 42.096 13.9813 41.521C13.3728 40.9323 12.7735 40.304 12.1558 39.6209C11.6995 39.1341 11.3024 38.6778 10.9479 38.2655C10.5509 37.7939 10.1675 37.3223 9.79939 36.866C9.31259 36.2331 8.84101 35.5988 8.36943 34.9355C7.89784 34.2722 7.45668 33.5953 7.04442 32.9472C6.71888 32.4315 6.38111 31.8823 6.04187 31.3119C5.73762 30.7521 5.42272 30.1922 5.12912 29.6385C4.74728 28.9311 4.39286 28.2085 4.05362 27.4875C3.71438 26.7664 3.42079 26.0423 3.11198 25.2908C2.55216 23.9217 2.06537 22.5221 1.63789 21.0921C1.21042 19.6622 0.857494 18.22 0.57302 16.7611C0.517642 16.4924 0.54752 16.2131 0.658516 15.9622C0.769511 15.7113 0.956058 15.5013 1.19214 15.3616C2.90746 14.1423 4.7151 13.0585 6.59867 12.1198C6.67169 12.8272 6.76142 13.5194 6.87856 14.2115C6.90746 14.4473 6.95158 14.6831 6.9957 14.9189C5.74526 15.5729 4.53524 16.3014 3.3721 17.1004C3.6079 18.2048 3.8878 19.2803 4.19661 20.3269C4.59518 21.6824 5.06682 23.0074 5.58252 24.2822C5.86243 24.9744 6.15602 25.6665 6.48004 26.3587C6.80407 27.0509 7.12959 27.7278 7.48252 28.3774C7.76243 28.9235 8.05759 29.4423 8.35271 29.9686C8.64631 30.4554 8.9612 30.9711 9.29436 31.5157C9.70814 32.1638 10.1204 32.7981 10.5478 33.3869C10.9753 33.9756 11.4317 34.6039 11.9033 35.2002C12.2714 35.6703 12.6244 36.1129 12.9925 36.5404C13.3911 37.012 13.7744 37.4532 14.1121 37.8213C14.6583 38.4116 15.2318 39.0003 15.851 39.6042C16.2343 39.9876 16.6329 40.3557 17.0147 40.7102C19.2316 39.6438 21.3345 38.3553 23.2913 36.8644C26.1593 34.6896 28.6955 32.1089 30.82 29.2034L30.8246 29.1989ZM47.0472 15.3555C47.2825 15.4968 47.4691 15.7064 47.5822 15.9564C47.6952 16.2065 47.7294 16.4851 47.6801 16.755C47.3849 18.2139 47.032 19.6576 46.6045 21.086C46.177 22.5145 45.6918 23.9156 45.1456 25.2847C45.0903 25.4213 45.0103 25.5466 44.9098 25.6544C44.6787 25.9223 44.3514 26.0886 43.9986 26.117C43.6459 26.1455 43.2961 26.0339 43.025 25.8065C42.0295 24.9399 40.9758 24.1424 39.8715 23.4196C38.7863 22.7098 37.6539 22.075 36.4821 21.5196C36.1748 21.381 35.9304 21.1324 35.7969 20.8228C35.6635 20.5132 35.6507 20.1648 35.7611 19.8462C36.2017 18.6064 36.5705 17.3422 36.8655 16.0598C36.9978 15.5593 37.1012 15.0573 37.2047 14.5386C37.5439 14.6709 37.868 14.8048 38.2072 14.9508C38.7077 15.1729 39.2082 15.4072 39.7087 15.6445C39.6356 15.9975 39.5566 16.3367 39.4729 16.6759C39.2386 17.6632 38.9724 18.6536 38.6636 19.6226C39.5764 20.0942 40.4754 20.6236 41.344 21.1834C42.0073 21.6261 42.6706 22.0961 43.3049 22.5829C43.5696 21.8467 43.8206 21.0952 44.0412 20.33C44.3652 19.2834 44.6299 18.2002 44.8809 17.1034C42.9475 15.7814 40.8897 14.6513 38.7366 13.7293C37.4105 13.1562 36.0529 12.6589 34.6703 12.24C33.4069 11.8584 32.1229 11.5486 30.8246 11.312C29.9118 11.1508 28.9686 11.0184 28.0103 10.915C27.0519 10.8115 26.1102 10.7522 25.1671 10.7233L24.6377 10.7081H23.6063L23.0906 10.7233C22.1474 10.7522 21.189 10.8115 20.2458 10.915C19.3026 11.0184 18.3458 11.1508 17.4178 11.312C16.1354 11.5478 14.8545 11.8718 13.5721 12.24C13.0853 12.3921 12.6 12.5442 12.1132 12.7116C12.0691 12.4317 12.025 12.167 11.9961 11.887C11.9078 11.2542 11.844 10.6351 11.8044 10.0007C15.7795 8.68644 19.9398 8.01874 24.1265 8.02307C29.3053 8.03017 34.4336 9.04066 39.228 10.9986C41.993 12.1508 44.6178 13.614 47.0517 15.3601L47.0472 15.3555ZM22.5003 27.0098C22.2798 26.7299 22.0881 26.4789 21.9116 26.2583C20.5097 24.339 19.3192 22.2738 18.361 20.0988C18.2287 19.8051 18.0948 19.51 17.9777 19.2149C17.8605 18.9198 17.7708 18.6703 17.6734 18.3904C17.6313 18.2931 17.6016 18.1909 17.5852 18.0861C17.5538 17.9129 17.5572 17.7351 17.5952 17.5632C17.6332 17.3912 17.7051 17.2286 17.8066 17.0848C17.9081 16.9409 18.0373 16.8187 18.1865 16.7252C18.3358 16.6318 18.5021 16.569 18.6759 16.5405C18.9558 16.4812 19.2843 16.4371 19.619 16.3884L20.5759 16.2545C21.1661 16.1967 21.7549 16.1526 22.3588 16.1024C22.9628 16.0522 23.5758 16.0583 24.128 16.0583C24.6802 16.0583 25.2766 16.072 25.9094 16.1024C26.5179 16.1465 27.1036 16.1907 27.6787 16.2545L28.6355 16.3884C28.9899 16.4325 29.2988 16.4767 29.5939 16.5405C29.6691 16.5527 29.743 16.572 29.8144 16.5984C30.1479 16.7187 30.4202 16.966 30.5721 17.2863C30.724 17.6066 30.7431 17.9739 30.6253 18.3082C30.5066 18.6125 30.3895 18.9259 30.2708 19.221C30.1522 19.5161 30.035 19.8112 29.9027 20.1048C29.4241 21.189 28.8878 22.2467 28.2962 23.2736C27.7019 24.3078 27.0477 25.3065 26.3369 26.2644C26.1158 26.5575 25.9246 26.808 25.7634 27.0159C25.5124 27.3201 25.3207 27.5757 25.1549 27.7522C25.103 27.818 25.0432 27.8773 24.9769 27.9286C24.8431 28.0414 24.6882 28.1263 24.5212 28.1785C24.3542 28.2308 24.1785 28.2492 24.0044 28.2328C23.8302 28.2163 23.661 28.1654 23.5067 28.0829C23.3524 28.0003 23.2162 27.8879 23.1058 27.7522C22.8852 27.5012 22.6935 27.2654 22.4973 27.0159L22.5003 27.0098Z" fill="#38CEC9"/>
</g>
<path d="M61.9897 19.1521C62.9322 17.6859 64.5904 16.9528 66.9642 16.9528V20.0684C66.6849 20.0161 66.4318 19.9899 66.2049 19.9899C64.9308 19.9899 63.9358 20.3652 63.2202 21.1157C62.5046 21.8488 62.1468 22.9135 62.1468 24.3099V31.091H58.874V17.1099H61.9897V19.1521Z" fill="#1B1E59"/>
<path d="M82.7559 24.179C82.7559 24.4059 82.7385 24.7288 82.7036 25.1477H71.7334C71.9254 26.1775 72.4228 26.9979 73.2258 27.6088C74.0461 28.2022 75.0585 28.499 76.2628 28.499C77.7988 28.499 79.0643 27.9928 80.0592 26.9804L81.8134 28.9964C81.185 29.747 80.3908 30.3142 79.4308 30.6982C78.4708 31.0822 77.3887 31.2742 76.1843 31.2742C74.6483 31.2742 73.2956 30.9688 72.1261 30.3579C70.9567 29.747 70.049 28.9004 69.4032 27.8182C68.7748 26.7186 68.4607 25.4793 68.4607 24.1004C68.4607 22.739 68.7661 21.5172 69.377 20.435C70.0054 19.3353 70.8694 18.4801 71.969 17.8692C73.0687 17.2582 74.3079 16.9528 75.6868 16.9528C77.0483 16.9528 78.2614 17.2582 79.3261 17.8692C80.4083 18.4626 81.2461 19.3092 81.8396 20.4088C82.4505 21.491 82.7559 22.7477 82.7559 24.179ZM75.6868 19.571C74.6396 19.571 73.7494 19.8852 73.0163 20.5135C72.3007 21.1244 71.8643 21.9448 71.7072 22.9746H79.6403C79.5007 21.9622 79.073 21.1419 78.3574 20.5135C77.6418 19.8852 76.7516 19.571 75.6868 19.571Z" fill="#1B1E59"/>
<path d="M90.2196 31.2742C89.085 31.2742 87.9767 31.1259 86.8945 30.8292C85.8123 30.5324 84.9483 30.1572 84.3025 29.7033L85.5592 27.2161C86.1876 27.635 86.9381 27.9753 87.8109 28.2372C88.701 28.4815 89.5738 28.6037 90.429 28.6037C92.384 28.6037 93.3614 28.0888 93.3614 27.059C93.3614 26.5702 93.1083 26.2299 92.6021 26.0379C92.1134 25.8459 91.3192 25.6626 90.2196 25.4881C89.0676 25.3135 88.125 25.1128 87.392 24.8859C86.6763 24.659 86.048 24.2662 85.5069 23.7077C84.9832 23.1317 84.7214 22.3375 84.7214 21.3252C84.7214 19.9986 85.2712 18.9426 86.3709 18.1572C87.488 17.3542 88.989 16.9528 90.8741 16.9528C91.8341 16.9528 92.7941 17.0662 93.7541 17.2932C94.7141 17.5026 95.4996 17.7906 96.1105 18.1572L94.8538 20.6444C93.6669 19.9462 92.3316 19.5972 90.848 19.5972C89.888 19.5972 89.1549 19.7455 88.6487 20.0422C88.16 20.3215 87.9156 20.6968 87.9156 21.1681C87.9156 21.6917 88.1774 22.067 88.701 22.2939C89.2421 22.5033 90.0712 22.7041 91.1883 22.8961C92.3054 23.0706 93.2218 23.2713 93.9374 23.4982C94.653 23.7252 95.264 24.1092 95.7701 24.6502C96.2938 25.1913 96.5556 25.9593 96.5556 26.9542C96.5556 28.2633 95.9883 29.3106 94.8538 30.0961C93.7192 30.8815 92.1745 31.2742 90.2196 31.2742Z" fill="#1B1E59"/>
<path d="M112.517 24.179C112.517 24.4059 112.5 24.7288 112.465 25.1477H101.495C101.687 26.1775 102.184 26.9979 102.987 27.6088C103.807 28.2022 104.82 28.499 106.024 28.499C107.56 28.499 108.826 27.9928 109.821 26.9804L111.575 28.9964C110.946 29.747 110.152 30.3142 109.192 30.6982C108.232 31.0822 107.15 31.2742 105.946 31.2742C104.41 31.2742 103.057 30.9688 101.887 30.3579C100.718 29.747 99.8104 28.9004 99.1646 27.8182C98.5362 26.7186 98.222 25.4793 98.222 24.1004C98.222 22.739 98.5275 21.5172 99.1384 20.435C99.7668 19.3353 100.631 18.4801 101.73 17.8692C102.83 17.2582 104.069 16.9528 105.448 16.9528C106.81 16.9528 108.023 17.2582 109.087 17.8692C110.17 18.4626 111.007 19.3092 111.601 20.4088C112.212 21.491 112.517 22.7477 112.517 24.179ZM105.448 19.571C104.401 19.571 103.511 19.8852 102.778 20.5135C102.062 21.1244 101.626 21.9448 101.469 22.9746H109.402C109.262 21.9622 108.834 21.1419 108.119 20.5135C107.403 19.8852 106.513 19.571 105.448 19.571Z" fill="#1B1E59"/>
<path d="M122.076 31.2742C120.627 31.2742 119.326 30.9688 118.174 30.3579C117.022 29.747 116.124 28.9004 115.478 27.8182C114.832 26.7186 114.509 25.4793 114.509 24.1004C114.509 22.7215 114.832 21.491 115.478 20.4088C116.124 19.3266 117.014 18.4801 118.148 17.8692C119.3 17.2582 120.609 16.9528 122.076 16.9528C123.454 16.9528 124.659 17.2321 125.689 17.7906C126.736 18.3492 127.521 19.1521 128.045 20.1993L125.532 21.6655C125.13 21.0197 124.624 20.5397 124.013 20.2255C123.42 19.8939 122.765 19.7281 122.049 19.7281C120.828 19.7281 119.815 20.1295 119.012 20.9324C118.209 21.7179 117.808 22.7739 117.808 24.1004C117.808 25.427 118.201 26.4917 118.986 27.2946C119.789 28.0801 120.81 28.4728 122.049 28.4728C122.765 28.4728 123.42 28.3157 124.013 28.0015C124.624 27.6699 125.13 27.1812 125.532 26.5353L128.045 28.0015C127.504 29.0488 126.71 29.8604 125.662 30.4364C124.633 30.995 123.437 31.2742 122.076 31.2742Z" fill="#1B1E59"/>
<path d="M144.41 17.1099V31.091H141.294V29.3106C140.771 29.939 140.116 30.4277 139.331 30.7768C138.545 31.1084 137.699 31.2742 136.791 31.2742C134.923 31.2742 133.449 30.7593 132.366 29.7295C131.302 28.6822 130.769 27.1375 130.769 25.0953V17.1099H134.042V24.6502C134.042 25.907 134.321 26.8495 134.88 27.4779C135.456 28.0888 136.267 28.3942 137.315 28.3942C138.484 28.3942 139.409 28.0364 140.09 27.3208C140.788 26.5877 141.137 25.5404 141.137 24.179V17.1099H144.41Z" fill="#1B1E59"/>
<path d="M151.811 19.1521C152.753 17.6859 154.411 16.9528 156.785 16.9528V20.0684C156.506 20.0161 156.253 19.9899 156.026 19.9899C154.752 19.9899 153.757 20.3652 153.041 21.1157C152.326 21.8488 151.968 22.9135 151.968 24.3099V31.091H148.695V17.1099H151.811V19.1521Z" fill="#1B1E59"/>
<path d="M167.311 16.9528C168.673 16.9528 169.886 17.2495 170.951 17.843C172.033 18.4364 172.879 19.2742 173.49 20.3564C174.101 21.4386 174.407 22.6866 174.407 24.1004C174.407 25.5142 174.101 26.771 173.49 27.8706C172.879 28.9528 172.033 29.7906 170.951 30.3841C169.886 30.9775 168.673 31.2742 167.311 31.2742C166.351 31.2742 165.47 31.1084 164.667 30.7768C163.882 30.4452 163.218 29.9477 162.677 29.2844V31.091H159.562V11.6641H162.834V18.8117C163.393 18.2008 164.047 17.7382 164.798 17.4241C165.566 17.1099 166.404 16.9528 167.311 16.9528ZM166.945 28.4728C168.149 28.4728 169.135 28.0713 169.903 27.2684C170.689 26.4655 171.082 25.4095 171.082 24.1004C171.082 22.7913 170.689 21.7353 169.903 20.9324C169.135 20.1295 168.149 19.7281 166.945 19.7281C166.159 19.7281 165.452 19.9113 164.824 20.2779C164.196 20.627 163.698 21.1332 163.332 21.7964C162.965 22.4597 162.782 23.2277 162.782 24.1004C162.782 24.9732 162.965 25.7412 163.332 26.4044C163.698 27.0677 164.196 27.5826 164.824 27.9492C165.452 28.2982 166.159 28.4728 166.945 28.4728Z" fill="#1B1E59"/>
<defs>
<clipPath id="clip0_10_988">
<rect width="48" height="43.6364" fill="white"/>
</clipPath>
</defs>
</svg>
