<svg width="183" height="48" viewBox="0 0 183 48" fill="none" xmlns="http://www.w3.org/2000/svg">
<g clip-path="url(#clip0_10_987)">
<path fill-rule="evenodd" clip-rule="evenodd" d="M26.709 47.085C31.9038 46.4785 36.7421 44.1366 40.4403 40.4383C44.1386 36.7401 46.4805 31.9019 47.087 26.707H38.3563C37.8056 29.5901 36.4003 32.2408 34.3231 34.3146C32.2459 36.3884 29.5929 37.7894 26.709 38.3354V47.085Z" fill="#F7936F"/>
<path fill-rule="evenodd" clip-rule="evenodd" d="M34.4648 3.24608L34.5197 3.21011C40.1691 -0.0359779 44.7372 -0.990521 46.864 1.13818C52.8808 7.1531 35.9136 25.8626 30.8873 30.8889C27.8645 33.9205 24.6612 36.7665 21.2949 39.4113V47.0796C18.5884 46.7723 15.9587 45.9834 13.53 44.7501L13.4751 44.7861C7.82568 48.0322 3.25963 48.9867 1.13093 46.8693C-1.78562 43.9528 1.62706 37.239 3.24063 34.4683C2.015 32.0366 1.22654 29.4083 0.911211 26.7035H9.66081C10.0434 28.7342 10.8528 30.6607 12.0353 32.3554C13.2178 34.0501 14.7465 35.4746 16.5204 36.5345C15.511 37.2675 14.4845 37.9644 13.4202 38.6178C11.8615 39.6083 10.248 40.5438 8.57757 41.3866C7.27029 40.2289 6.101 38.9243 5.09288 37.4985C3.33159 40.8923 2.74449 43.3865 3.68006 44.3164C7.69695 48.2935 25.7644 31.6976 28.7359 28.7261C31.8994 25.5667 34.8586 22.2091 37.5953 18.6735C36.6935 16.3688 35.2204 14.3313 33.3144 12.7527C31.4084 11.174 29.1323 10.1061 26.7 9.64925V0.899554C29.407 1.20412 32.0372 1.99317 34.4648 3.22902V3.24608ZM42.9019 10.492C44.6632 7.0982 45.2503 4.60398 44.3147 3.67409C43.3792 2.74421 40.9058 3.34457 37.5101 5.10587C39.5977 6.58735 41.4204 8.41016 42.9019 10.4977V10.492Z" fill="#F16063"/>
<path fill-rule="evenodd" clip-rule="evenodd" d="M21.2989 0.916992C16.1039 1.52389 11.2657 3.86621 7.56746 7.5648C3.86921 11.2634 1.52732 16.1018 0.920898 21.2969H9.67059C10.2138 18.4135 11.6142 15.761 13.6888 13.6861C15.7633 11.6112 18.4156 10.2104 21.2989 9.66664V0.916992Z" fill="#F7936F"/>
</g>
<path d="M87.6136 29.5571C87.6136 30.5684 87.4205 31.523 87.0341 32.4207C86.6591 33.3071 86.1364 34.0855 85.4659 34.7559C84.8068 35.415 84.0284 35.9378 83.1307 36.3241C82.2443 36.6991 81.2955 36.8866 80.2841 36.8866C79.375 36.8866 78.5 36.7275 77.6591 36.4094C76.8295 36.0912 76.0795 35.6253 75.4091 35.0116C74.7386 35.6253 73.983 36.0912 73.142 36.4094C72.3011 36.7275 71.4261 36.8866 70.517 36.8866C69.5057 36.8866 68.5511 36.6991 67.6534 36.3241C66.767 35.9378 65.9886 35.415 65.3182 34.7559C64.6591 34.0855 64.1364 33.3071 63.75 32.4207C63.375 31.523 63.1875 30.5684 63.1875 29.5571V12.1025H68.0795V29.5571C68.0795 29.898 68.142 30.2219 68.267 30.5287C68.392 30.8241 68.5625 31.0855 68.7784 31.3128C69.0057 31.5287 69.267 31.6991 69.5625 31.8241C69.858 31.9491 70.1761 32.0116 70.517 32.0116C70.858 32.0116 71.1761 31.9491 71.4716 31.8241C71.767 31.6991 72.0227 31.5287 72.2386 31.3128C72.4659 31.0855 72.642 30.8241 72.767 30.5287C72.892 30.2219 72.9545 29.898 72.9545 29.5571V12.1025H77.8466V29.5571C77.8466 29.898 77.9091 30.2219 78.0341 30.5287C78.1591 30.8241 78.3295 31.0855 78.5455 31.3128C78.7727 31.5287 79.0341 31.6991 79.3295 31.8241C79.625 31.9491 79.9432 32.0116 80.2841 32.0116C80.625 32.0116 80.9432 31.9491 81.2386 31.8241C81.5341 31.6991 81.7898 31.5287 82.0057 31.3128C82.233 31.0855 82.4091 30.8241 82.5341 30.5287C82.6705 30.2219 82.7386 29.898 82.7386 29.5571V12.1025H87.6136V29.5571Z" fill="#16192C"/>
<path d="M96.9886 13.3298C96.9886 13.7616 96.9034 14.165 96.733 14.54C96.5739 14.915 96.3523 15.2446 96.0682 15.5287C95.7841 15.8014 95.4489 16.023 95.0625 16.1934C94.6875 16.3525 94.2841 16.4321 93.8523 16.4321C93.4205 16.4321 93.0114 16.3525 92.625 16.1934C92.25 16.023 91.9205 15.8014 91.6364 15.5287C91.3636 15.2446 91.142 14.915 90.9716 14.54C90.8125 14.165 90.733 13.7616 90.733 13.3298C90.733 12.9094 90.8125 12.5116 90.9716 12.1366C91.142 11.7503 91.3636 11.4207 91.6364 11.148C91.9205 10.8639 92.25 10.6423 92.625 10.4832C93.0114 10.3128 93.4205 10.2275 93.8523 10.2275C94.2841 10.2275 94.6875 10.3128 95.0625 10.4832C95.4489 10.6423 95.7841 10.8639 96.0682 11.148C96.3523 11.4207 96.5739 11.7503 96.733 12.1366C96.9034 12.5116 96.9886 12.9094 96.9886 13.3298ZM96.1875 36.5457H91.5V18.29H96.1875V36.5457Z" fill="#16192C"/>
<path d="M109.773 36.5457H99.1364V31.9094H109.773C110.091 31.9094 110.364 31.7957 110.591 31.5684C110.818 31.3412 110.932 31.0684 110.932 30.7503C110.932 30.4207 110.818 30.2048 110.591 30.1025C110.364 30.0003 110.091 29.9491 109.773 29.9491H104.932C104.125 29.9491 103.369 29.7957 102.665 29.4889C101.96 29.1821 101.347 28.7673 100.824 28.2446C100.301 27.7105 99.8864 27.0912 99.5795 26.3866C99.2841 25.6821 99.1364 24.9264 99.1364 24.1196C99.1364 23.3128 99.2841 22.5571 99.5795 21.8525C99.8864 21.148 100.301 20.5344 100.824 20.0116C101.347 19.4889 101.96 19.0798 102.665 18.7844C103.369 18.4775 104.125 18.3241 104.932 18.3241H114.358V22.9605H104.932C104.614 22.9605 104.341 23.0741 104.114 23.3014C103.886 23.5287 103.773 23.8014 103.773 24.1196C103.773 24.4491 103.886 24.7332 104.114 24.9719C104.341 25.1991 104.614 25.3128 104.932 25.3128H109.773C110.568 25.3128 111.318 25.4491 112.023 25.7219C112.727 25.9832 113.341 26.3525 113.864 26.8298C114.386 27.3071 114.801 27.8809 115.108 28.5514C115.415 29.2219 115.568 29.9548 115.568 30.7503C115.568 31.5571 115.415 32.3128 115.108 33.0173C114.801 33.7105 114.386 34.3241 113.864 34.8582C113.341 35.3809 112.727 35.7957 112.023 36.1025C111.318 36.398 110.568 36.5457 109.773 36.5457Z" fill="#16192C"/>
<path d="M122.71 36.5457H118.057V11.0287H122.71V19.0912C123.267 18.6707 123.841 18.3753 124.432 18.2048C125.023 18.023 125.625 17.9321 126.239 17.9321C127.364 17.9321 128.42 18.148 129.409 18.5798C130.398 19.0003 131.256 19.5855 131.983 20.3355C132.722 21.0741 133.301 21.9434 133.722 22.9434C134.153 23.9321 134.369 24.9889 134.369 26.1139V36.5457H129.682V26.1139H129.716C129.716 25.6366 129.625 25.1878 129.443 24.7673C129.261 24.3355 129.011 23.9605 128.693 23.6423C128.375 23.3241 128.006 23.0741 127.585 22.8923C127.165 22.7105 126.716 22.6196 126.239 22.6196C125.75 22.6196 125.29 22.7105 124.858 22.8923C124.426 23.0741 124.051 23.3241 123.733 23.6423C123.415 23.9605 123.165 24.3355 122.983 24.7673C122.801 25.1878 122.71 25.6366 122.71 26.1139V36.5457Z" fill="#16192C"/>
<path d="M144.955 32.0798C145.136 32.1366 145.318 32.1764 145.5 32.1991C145.682 32.2105 145.864 32.2162 146.045 32.2162C146.5 32.2162 146.938 32.1537 147.358 32.0287C147.778 31.9037 148.17 31.7275 148.534 31.5003C148.909 31.2616 149.239 30.9775 149.523 30.648C149.818 30.3071 150.057 29.9321 150.239 29.523L153.648 32.9491C153.216 33.5628 152.716 34.1139 152.148 34.6025C151.591 35.0912 150.983 35.5059 150.324 35.8469C149.676 36.1878 148.989 36.4434 148.261 36.6139C147.545 36.7957 146.807 36.8866 146.045 36.8866C144.761 36.8866 143.551 36.648 142.415 36.1707C141.29 35.6934 140.301 35.0287 139.449 34.1764C138.608 33.3241 137.943 32.3128 137.455 31.1423C136.966 29.9605 136.722 28.665 136.722 27.2559C136.722 25.8128 136.966 24.4946 137.455 23.3014C137.943 22.1082 138.608 21.0912 139.449 20.2503C140.301 19.4094 141.29 18.7559 142.415 18.29C143.551 17.8241 144.761 17.5912 146.045 17.5912C146.807 17.5912 147.551 17.6821 148.278 17.8639C149.006 18.0457 149.693 18.3071 150.341 18.648C151 18.9889 151.614 19.4094 152.182 19.9094C152.75 20.398 153.25 20.9491 153.682 21.5628L144.955 32.0798ZM147.341 22.4832C147.125 22.4037 146.909 22.3525 146.693 22.3298C146.489 22.3071 146.273 22.2957 146.045 22.2957C145.409 22.2957 144.807 22.415 144.239 22.6537C143.682 22.8809 143.193 23.2105 142.773 23.6423C142.364 24.0741 142.04 24.5969 141.801 25.2105C141.562 25.8128 141.443 26.4946 141.443 27.2559C141.443 27.4264 141.449 27.6196 141.46 27.8355C141.483 28.0514 141.511 28.273 141.545 28.5003C141.591 28.7162 141.642 28.9264 141.699 29.1309C141.756 29.3355 141.83 29.5173 141.92 29.6764L147.341 22.4832Z" fill="#16192C"/>
<path d="M160.722 36.5457H156.034V11.0287H160.722V36.5457Z" fill="#16192C"/>
<path d="M168.972 43.5003H164.284V18.29H165.409L167.267 20.4889C167.688 20.0912 168.148 19.7162 168.648 19.3639C169.148 19.0116 169.665 18.7105 170.199 18.4605C170.744 18.1991 171.307 17.9946 171.886 17.8469C172.466 17.6991 173.051 17.6253 173.642 17.6253C174.926 17.6253 176.131 17.8582 177.256 18.3241C178.392 18.7787 179.381 19.4264 180.222 20.2673C181.074 21.1082 181.744 22.1253 182.233 23.3184C182.722 24.5003 182.966 25.8128 182.966 27.2559C182.966 28.7559 182.722 30.1082 182.233 31.3128C181.744 32.5059 181.074 33.523 180.222 34.3639C179.381 35.1934 178.392 35.8298 177.256 36.273C176.131 36.7162 174.926 36.9378 173.642 36.9378C173.233 36.9378 172.824 36.8923 172.415 36.8014C172.017 36.7105 171.619 36.5912 171.222 36.4434C170.835 36.2844 170.449 36.1082 170.062 35.915C169.688 35.7219 169.324 35.523 168.972 35.3184V43.5003ZM178.295 27.2559C178.295 26.4832 178.17 25.79 177.92 25.1764C177.682 24.5628 177.352 24.0457 176.932 23.6253C176.511 23.1934 176.017 22.8639 175.449 22.6366C174.881 22.4094 174.278 22.2957 173.642 22.2957C173.006 22.2957 172.403 22.4094 171.835 22.6366C171.278 22.8639 170.79 23.1934 170.369 23.6253C169.949 24.0457 169.614 24.5628 169.364 25.1764C169.125 25.79 169.006 26.4832 169.006 27.2559C169.006 27.9946 169.125 28.6707 169.364 29.2844C169.614 29.898 169.949 30.4207 170.369 30.8525C170.79 31.2844 171.278 31.6196 171.835 31.8582C172.403 32.0969 173.006 32.2162 173.642 32.2162C174.278 32.2162 174.881 32.0969 175.449 31.8582C176.017 31.6196 176.511 31.2844 176.932 30.8525C177.352 30.4207 177.682 29.898 177.92 29.2844C178.17 28.6707 178.295 27.9946 178.295 27.2559Z" fill="#16192C"/>
<defs>
<clipPath id="clip0_10_987">
<rect width="48.142" height="48" fill="white"/>
</clipPath>
</defs>
</svg>
