<svg xmlns="http://www.w3.org/2000/svg" width="104" height="66" viewBox="0 0 104 66" fill="none"><path fill-rule="evenodd" clip-rule="evenodd" d="M39.7128 18.2782C43.517 18.2782 46.7197 15.1185 46.7197 11.0729C46.7197 7.02721 43.517 3.86749 39.7128 3.86749C35.9086 3.86749 32.7059 7.02721 32.7059 11.0729C32.7059 15.1185 35.9086 18.2782 39.7128 18.2782ZM39.7128 22.1457C45.7186 22.1457 50.5872 17.1882 50.5872 11.0729C50.5872 4.95748 45.7186 0 39.7128 0C33.707 0 28.8384 4.95748 28.8384 11.0729C28.8384 17.1882 33.707 22.1457 39.7128 22.1457Z" fill="black"></path><path d="M25 31.735C25 27.4631 28.4631 24 32.735 24H46.5071C50.7791 24 54.2421 27.4631 54.2421 31.735V46.0408C54.2421 50.3127 50.7791 53.7757 46.5071 53.7757H32.735C28.4631 53.7757 25 50.3127 25 46.0408V31.735Z" fill="#20376C"></path><path fill-rule="evenodd" clip-rule="evenodd" d="M46.5071 28.1993H32.735C30.599 28.1993 28.8675 29.9308 28.8675 32.0668V46.3725C28.8675 48.5085 30.599 50.24 32.735 50.24H46.5071C48.6431 50.24 50.3746 48.5085 50.3746 46.3725V32.0668C50.3746 29.9308 48.6431 28.1993 46.5071 28.1993ZM32.735 24.3318C28.4631 24.3318 25 27.7949 25 32.0668V46.3725C25 50.6445 28.4631 54.1075 32.735 54.1075H46.5071C50.779 54.1075 54.2421 50.6444 54.2421 46.3725V32.0668C54.2421 27.7949 50.7791 24.3318 46.5071 24.3318H32.735Z" fill="black"></path><circle cx="14.5" cy="50.5" r="4.5" fill="#F8A21F"></circle><rect x="3" y="39" width="80" height="23" rx="5" fill="white"></rect><circle cx="14.0233" cy="51.0233" r="5.02332" fill="#F8A21F"></circle><path fill-rule="evenodd" clip-rule="evenodd" d="M78.3465 39.8675H7.73498C5.59903 39.8675 3.86749 41.599 3.86749 43.735V58.0408C3.86749 60.1767 5.59902 61.9082 7.73498 61.9082H78.3465C80.4825 61.9082 82.214 60.1767 82.214 58.0408V43.735C82.214 41.599 80.4825 39.8675 78.3465 39.8675ZM7.73498 36C3.46307 36 0 39.4631 0 43.735V58.0408C0 62.3127 3.46307 65.7757 7.73498 65.7757H78.3465C82.6184 65.7757 86.0815 62.3127 86.0815 58.0408V43.735C86.0815 39.4631 82.6184 36 78.3465 36H7.73498Z" fill="black"></path><circle cx="85.9905" cy="40.9905" r="13.9905" fill="white" stroke="black" stroke-width="4"></circle><path d="M97 52L102 57" stroke="black" stroke-width="4" stroke-linecap="round"></path></svg>