<svg width="76" height="62" viewBox="0 0 76 62" fill="none" xmlns="http://www.w3.org/2000/svg">
<path d="M6.83333 8.79167V3.64275C6.83959 2.74546 7.19858 1.88664 7.83275 1.25183C8.46693 0.617011 9.32538 0.257157 10.2227 0.25H71.7773C73.6497 0.25 75.1667 1.77042 75.1667 3.64275V58.3573C75.1604 59.2545 74.8014 60.1134 74.1672 60.7482C73.5331 61.383 72.6746 61.7428 71.7773 61.75H10.2227C9.32345 61.7491 8.46136 61.3912 7.82584 60.7551C7.19031 60.1189 6.83333 59.2565 6.83333 58.3573V54.9167H68.3333V14.9417L41 39.5417L6.83333 8.79167ZM0 24.1667H17.0833V31H0V24.1667ZM0 41.25H27.3333V48.0833H0V41.25Z" fill="#5DCC96"/>
</svg>
