<svg xmlns="http://www.w3.org/2000/svg" width="87.626" height="27.063" viewBox="0 0 87.626 27.063">
  <g id="Group_124" data-name="Group 124" transform="translate(-683.59 -3006.626)">
    <path id="Path_433" data-name="Path 433" d="M705.445,3009.4l-6.551,5.74a3.7,3.7,0,0,0-3.465-2.4H689.9v10.278l-5.2,4.557a10.868,10.868,0,0,1-1.114-4.817V3009.4a22.891,22.891,0,0,1,21.855,0" transform="translate(0 0)" fill="#d80c1b"/>
    <path id="Path_434" data-name="Path 434" d="M725.778,3060.078v13.358a10.931,10.931,0,0,1-20.218,5.762s0,0-.006-.006c-.185-.3-.36-.62-.516-.939l5.2-4.557v4.573h10.062l-4.188-6.9a3.7,3.7,0,0,0,3.355-3.684v-.571a3.714,3.714,0,0,0-.235-1.3Z" transform="translate(-20.333 -50.676)" fill="#0F0738"/>
    <path id="Path_435" data-name="Path 435" d="M1276.957,3124.423h4.982a7.736,7.736,0,0,1,1.865.221,4.148,4.148,0,0,1,1.544.732,3.55,3.55,0,0,1,1.055,1.382,5.28,5.28,0,0,1,.391,2.167,4.823,4.823,0,0,1-.709,2.67,3.146,3.146,0,0,1-2.074,1.393l3.275,6.258h-3.4l-2.691-5.923h-1.4v5.923h-2.835Zm2.835,6.134h1.674c.255,0,.525-.01.807-.031a2.247,2.247,0,0,0,.775-.188,1.382,1.382,0,0,0,.571-.491,1.655,1.655,0,0,0,.228-.942,1.752,1.752,0,0,0-.2-.9,1.425,1.425,0,0,0-.511-.513,2.063,2.063,0,0,0-.709-.239,4.955,4.955,0,0,0-.78-.063h-1.856Z" transform="translate(-562.542 -111.678)" fill="#0F0738"/>
    <rect id="Rectangle_122" data-name="Rectangle 122" width="3.264" height="14.822" transform="translate(730.561 3012.745)" fill="#0F0738"/>
    <path id="Path_436" data-name="Path 436" d="M1788.449,3124.451h5.527a14.3,14.3,0,0,1,1.937.135,5.3,5.3,0,0,1,1.746.545,3.352,3.352,0,0,1,1.258,1.141,3.488,3.488,0,0,1,.482,1.947,3.115,3.115,0,0,1-.7,2.084,3.878,3.878,0,0,1-1.853,1.183v.042a4.251,4.251,0,0,1,1.33.407,3.544,3.544,0,0,1,1.024.776,3.323,3.323,0,0,1,.66,1.1,3.864,3.864,0,0,1,.228,1.341,3.558,3.558,0,0,1-.5,1.956,3.972,3.972,0,0,1-1.3,1.268,5.737,5.737,0,0,1-1.79.69,9.562,9.562,0,0,1-1.978.209h-6.072Zm3.267,5.925h2.363a3.276,3.276,0,0,0,.745-.083,2.067,2.067,0,0,0,.66-.272,1.427,1.427,0,0,0,.47-.5,1.5,1.5,0,0,0,.178-.754,1.374,1.374,0,0,0-.2-.763,1.393,1.393,0,0,0-.516-.471,2.453,2.453,0,0,0-.711-.24,4.141,4.141,0,0,0-.773-.075h-2.219Zm0,6.133h2.93a3.548,3.548,0,0,0,.763-.081,2.048,2.048,0,0,0,.7-.294,1.713,1.713,0,0,0,.513-.544,1.609,1.609,0,0,0,.2-.817,1.327,1.327,0,0,0-.26-.848,1.682,1.682,0,0,0-.66-.491,3.45,3.45,0,0,0-.861-.23,6.289,6.289,0,0,0-.857-.063h-2.469Z" transform="translate(-1047.463 -111.705)" fill="#0F0738"/>
    <path id="Path_437" data-name="Path 437" d="M2098.684,3132.949l-5.571-8.5h4.063l3.139,5.548,3.33-5.548h3.872l-5.568,8.5v6.324h-3.264Z" transform="translate(-1336.3 -111.704)" fill="#0F0738"/>
  </g>
</svg>
