<svg xmlns="http://www.w3.org/2000/svg" width="120" height="75" viewBox="0 0 120 75" fill="none"><path d="M23.4424 26.791H48.0008V43.5354H23.4424V26.791Z" fill="#20376C"></path><path fill-rule="evenodd" clip-rule="evenodd" d="M35.8744 18.2782C39.6786 18.2782 42.8813 15.1185 42.8813 11.0729C42.8813 7.02721 39.6786 3.86749 35.8744 3.86749C32.0702 3.86749 28.8675 7.02721 28.8675 11.0729C28.8675 15.1185 32.0702 18.2782 35.8744 18.2782ZM35.8744 22.1457C41.8802 22.1457 46.7488 17.1882 46.7488 11.0729C46.7488 4.95748 41.8802 0 35.8744 0C29.8686 0 25 4.95748 25 11.0729C25 17.1882 29.8686 22.1457 35.8744 22.1457Z" fill="black"></path><path fill-rule="evenodd" clip-rule="evenodd" d="M87.3749 45.6528H8.62634C6.24424 45.6528 4.31317 47.6002 4.31317 50.0025V66.0922C4.31317 68.4946 6.24424 70.442 8.62634 70.442H87.3749C89.757 70.442 91.6881 68.4946 91.6881 66.0922V50.0025C91.6881 47.6002 89.757 45.6528 87.3749 45.6528ZM8.62634 41.303C3.86214 41.303 0 45.1979 0 50.0025V66.0922C0 70.8969 3.86214 74.7918 8.62634 74.7918H87.3749C92.1391 74.7918 96.0012 70.8969 96.0012 66.0922V50.0025C96.0012 45.1979 92.1391 41.303 87.3749 41.303H8.62634Z" fill="black"></path><circle cx="13.9535" cy="56.3729" r="5.02332" fill="#F8A21F"></circle><rect x="68" y="35" width="34" height="27" fill="white"></rect><path d="M70.5511 49.3593C69.7895 50.1209 68.615 51.756 67.2133 57.1411C66.486 59.9351 66.0475 62.4096 66.0291 62.5137C65.9205 63.1301 66.1194 63.7609 66.5621 64.2035C66.9963 64.6376 67.6238 64.8471 68.252 64.7365C68.3559 64.7181 70.8306 64.2796 73.6246 63.5523C79.0097 62.1507 80.6448 60.9761 81.4064 60.2146C84.4061 57.2149 84.4065 52.3594 81.4064 49.3593C78.4066 46.3595 73.5512 46.3592 70.5511 49.3593ZM78.6926 57.5007C78.5199 57.6732 77.4192 58.5966 72.6812 59.8319C71.8719 60.0429 71.0836 60.2296 70.3784 60.3873C70.536 59.682 70.7227 58.8937 70.9337 58.0844C72.169 53.3464 73.0924 52.2456 73.265 52.0731C74.7648 50.5733 77.1925 50.5731 78.6926 52.0731C80.1924 53.573 80.1926 56.0006 78.6926 57.5007Z" fill="black"></path><path fill-rule="evenodd" clip-rule="evenodd" d="M105.455 19.6115C109.386 19.4848 113.119 22.7446 112.442 27.0947C111.641 32.2317 109.275 37.672 106.672 41.9012C106.308 42.4913 105.868 43.0075 105.386 43.4518L96.5426 51.5997C93.5333 54.3723 88.8838 54.3169 85.9414 51.4732L79.7901 45.5283C76.6384 42.4824 76.65 37.4273 79.8156 34.3958L88.5884 25.9948C88.6221 25.9625 88.6568 25.9314 88.6925 25.9015C94.7639 20.8149 100.923 19.7575 105.455 19.6115ZM108.279 26.446C108.48 25.1576 107.362 23.7652 105.59 23.8223C101.665 23.9487 96.5536 24.835 91.4507 29.087L82.7294 37.4387C81.2905 38.8166 81.2853 41.1144 82.7178 42.4989L88.8692 48.4438C90.2066 49.7364 92.32 49.7616 93.6879 48.5013L102.531 40.3534C102.758 40.1447 102.942 39.9228 103.084 39.6925C105.487 35.789 107.588 30.8783 108.279 26.446Z" fill="black"></path><path fill-rule="evenodd" clip-rule="evenodd" d="M85.6782 23.0172C86.5136 23.8525 86.5136 25.207 85.6782 26.0423L77.597 34.1235C76.7616 34.9589 75.4072 34.9589 74.5718 34.1235C73.7365 33.2881 73.7365 31.9337 74.5718 31.0983L82.653 23.0172C83.4884 22.1818 84.8428 22.1818 85.6782 23.0172Z" fill="black"></path><path fill-rule="evenodd" clip-rule="evenodd" d="M107.77 45.1123C108.577 45.9811 108.577 47.3897 107.77 48.2585L100.425 56.1685C99.6182 57.0373 98.3102 57.0373 97.5035 56.1685C96.6968 55.2997 96.6968 53.8911 97.5035 53.0223L104.849 45.1123C105.655 44.2435 106.963 44.2435 107.77 45.1123Z" fill="black"></path><path fill-rule="evenodd" clip-rule="evenodd" d="M95.7493 30.0004C96.5707 29.2703 97.9023 29.2703 98.7236 30.0004L102.463 33.324C103.284 34.0541 103.284 35.2377 102.463 35.9678C101.641 36.6979 100.31 36.6979 99.4883 35.9678L95.7493 32.6443C94.928 31.9142 94.928 30.7305 95.7493 30.0004Z" fill="black"></path><path fill-rule="evenodd" clip-rule="evenodd" d="M92.043 38.8262C91.8407 38.8262 91.6767 38.9776 91.6767 39.1643C91.6767 39.351 91.8407 39.5024 92.043 39.5024C92.2453 39.5024 92.4093 39.351 92.4093 39.1643C92.4093 38.9776 92.2453 38.8262 92.043 38.8262ZM86.3047 39.1643C86.3047 36.2389 88.8738 33.8674 92.043 33.8674C95.2122 33.8674 97.7813 36.2389 97.7813 39.1643C97.7813 42.0897 95.2122 44.4612 92.043 44.4612C88.8738 44.4612 86.3047 42.0897 86.3047 39.1643Z" fill="black"></path><path d="M23 44V32C23 28.6863 25.6863 26 29 26H43C46.3137 26 49 28.6863 49 32V44" stroke="black" stroke-width="4"></path></svg>